<svg width="848" height="263" viewBox="0 0 848 263" fill="none" xmlns="http://www.w3.org/2000/svg">
<g clip-path="url(#clip0_1_3)">
<path d="M184.422 127.792H183.174C182.47 125.68 181.606 123.472 180.582 121.168C179.622 118.8 178.342 116.656 176.742 114.736C175.206 112.752 173.254 111.152 170.886 109.936C168.582 108.656 165.702 108.016 162.246 108.016C157.574 108.016 153.894 108.88 151.206 110.608C148.518 112.336 146.47 114.736 145.062 117.808C143.718 120.88 142.854 124.56 142.47 128.848C142.086 133.072 141.894 137.712 141.894 142.768C141.894 149.424 142.278 154.928 143.046 159.28C143.814 163.632 144.998 167.088 146.598 169.648C148.262 172.208 150.374 174 152.934 175.024C155.558 176.048 158.662 176.56 162.246 176.56C165.126 176.56 167.718 175.984 170.022 174.832C172.39 173.68 174.47 172.176 176.262 170.32C178.054 168.4 179.558 166.224 180.774 163.792C181.99 161.36 182.886 158.832 183.462 156.208H184.998V176.56H183.462C183.142 175.792 182.758 175.28 182.31 175.024C181.862 174.704 181.19 174.544 180.294 174.544C179.526 174.544 178.534 174.736 177.318 175.12C176.102 175.44 174.694 175.824 173.094 176.272C171.558 176.656 169.862 177.008 168.006 177.328C166.15 177.712 164.198 177.904 162.15 177.904C157.478 177.904 152.966 177.008 148.614 175.216C144.262 173.36 140.422 170.864 137.094 167.728C133.83 164.528 131.206 160.784 129.222 156.496C127.238 152.208 126.246 147.568 126.246 142.576C126.246 137.136 127.334 132.208 129.51 127.792C131.75 123.376 134.598 119.6 138.054 116.464C141.51 113.328 145.35 110.928 149.574 109.264C153.862 107.536 158.054 106.672 162.15 106.672C164.198 106.672 166.086 106.864 167.814 107.248C169.606 107.632 171.238 108.048 172.71 108.496C174.246 108.88 175.622 109.264 176.838 109.648C178.054 110.032 179.078 110.224 179.91 110.224C180.806 110.224 181.478 110.128 181.926 109.936C182.374 109.68 182.694 109.104 182.886 108.208H184.422V127.792ZM210.311 142.576C210.311 149.232 210.695 154.768 211.463 159.184C212.231 163.536 213.415 167.024 215.015 169.648C216.679 172.208 218.791 174 221.351 175.024C223.975 176.048 227.079 176.56 230.663 176.56C235.399 176.56 239.111 175.696 241.799 173.968C244.487 172.176 246.503 169.744 247.847 166.672C249.191 163.536 250.023 159.856 250.343 155.632C250.727 151.344 250.919 146.704 250.919 141.712C250.919 137.232 250.759 132.976 250.439 128.944C250.183 124.848 249.383 121.264 248.039 118.192C246.695 115.056 244.647 112.592 241.895 110.8C239.207 108.944 235.463 108.016 230.663 108.016C226.183 108.016 222.599 108.88 219.911 110.608C217.223 112.272 215.175 114.64 213.767 117.712C212.359 120.784 211.431 124.432 210.983 128.656C210.535 132.88 210.311 137.52 210.311 142.576ZM194.663 142.576C194.663 137.136 195.751 132.208 197.927 127.792C200.167 123.376 203.015 119.6 206.471 116.464C209.927 113.328 213.799 110.928 218.087 109.264C222.375 107.536 226.567 106.672 230.663 106.672C235.079 106.672 239.431 107.504 243.719 109.168C248.071 110.832 251.911 113.2 255.239 116.272C258.631 119.344 261.351 123.088 263.399 127.504C265.511 131.856 266.567 136.784 266.567 142.288C266.567 147.088 265.575 151.664 263.591 156.016C261.671 160.304 259.047 164.08 255.719 167.344C252.455 170.608 248.647 173.2 244.295 175.12C240.007 176.976 235.463 177.904 230.663 177.904C225.927 177.904 221.383 177.008 217.031 175.216C212.679 173.36 208.839 170.864 205.511 167.728C202.247 164.528 199.623 160.784 197.639 156.496C195.655 152.208 194.663 147.568 194.663 142.576ZM273.864 108.208H296.52L328.488 153.904H328.68V109.552H319.848V108.208H339.048V109.552H330.216V176.56H327.624L284.424 115.024H284.232V175.216H293.064V176.56H273.864V175.216H282.696V109.552H273.864V108.208ZM368.636 109.552H365.18C362.812 109.552 360.7 109.808 358.844 110.32C356.988 110.768 355.324 111.6 353.852 112.816C352.38 113.968 351.068 115.6 349.916 117.712C348.764 119.824 347.708 122.512 346.748 125.776H345.5V108.208H405.692V125.776H404.444C403.484 122.512 402.428 119.824 401.276 117.712C400.124 115.6 398.812 113.968 397.34 112.816C395.868 111.6 394.204 110.768 392.348 110.32C390.492 109.808 388.38 109.552 386.012 109.552H382.556V175.216H391.388V176.56H359.804V175.216H368.636V109.552ZM413.187 108.208H444.771V109.552H435.939V175.216H444.771V176.56H413.187V175.216H422.019V109.552H413.187V108.208ZM451.801 108.208H474.457L506.425 153.904H506.617V109.552H497.785V108.208H516.985V109.552H508.153V176.56H505.561L462.361 115.024H462.169V175.216H471.001V176.56H451.801V175.216H460.633V109.552H451.801V108.208ZM523.245 108.208H580.653V124.624H579.405C579.085 123.536 578.541 122.16 577.773 120.496C577.005 118.768 575.917 117.104 574.509 115.504C573.165 113.904 571.405 112.528 569.229 111.376C567.053 110.16 564.397 109.552 561.261 109.552H545.997V139.216H551.373C553.741 139.216 555.725 138.896 557.325 138.256C558.989 137.552 560.365 136.592 561.453 135.376C562.541 134.096 563.437 132.592 564.141 130.864C564.845 129.072 565.421 127.088 565.869 124.912H567.117V154.768H565.869C565.421 152.912 564.877 151.12 564.237 149.392C563.661 147.664 562.861 146.16 561.837 144.88C560.813 143.536 559.533 142.48 557.997 141.712C556.525 140.944 554.669 140.56 552.429 140.56H545.997V175.216H561.741C564.685 175.216 567.341 174.736 569.709 173.776C572.077 172.752 574.157 171.344 575.949 169.552C577.805 167.76 579.341 165.68 580.557 163.312C581.773 160.88 582.701 158.288 583.341 155.536H584.589V176.56H523.245V175.216H532.077V109.552H523.245V108.208ZM592.239 108.208H614.895L646.863 153.904H647.055V109.552H638.223V108.208H657.423V109.552H648.591V176.56H645.999L602.799 115.024H602.607V175.216H611.439V176.56H592.239V175.216H601.071V109.552H592.239V108.208ZM687.011 109.552H683.555C681.187 109.552 679.075 109.808 677.219 110.32C675.363 110.768 673.699 111.6 672.227 112.816C670.755 113.968 669.443 115.6 668.291 117.712C667.139 119.824 666.083 122.512 665.123 125.776H663.875V108.208H724.067V125.776H722.819C721.859 122.512 720.803 119.824 719.651 117.712C718.499 115.6 717.187 113.968 715.715 112.816C714.243 111.6 712.579 110.768 710.723 110.32C708.867 109.808 706.755 109.552 704.387 109.552H700.931V175.216H709.763V176.56H678.179V175.216H687.011V109.552Z" fill="#4B2E2B"/>
<path d="M391.773 209.614H393.093V213.448H395.029V209.614H396.35V219.415H395.029V214.566H393.093V219.415H391.773V209.614ZM402.773 214.756C402.773 216.487 402.581 217.716 402.196 218.444C401.811 219.172 401.165 219.536 400.26 219.536C399.308 219.536 398.637 219.144 398.247 218.361C397.862 217.595 397.67 216.235 397.67 214.28C397.67 212.536 397.86 211.303 398.241 210.579C398.626 209.851 399.278 209.487 400.196 209.487C401.017 209.487 401.627 209.769 402.024 210.332C402.287 210.708 402.477 211.244 402.596 211.938C402.714 212.581 402.773 213.52 402.773 214.756ZM401.39 214.896C401.39 213.199 401.313 212.073 401.161 211.519C401.009 210.96 400.698 210.681 400.228 210.681C399.758 210.681 399.445 210.937 399.288 211.449C399.136 211.965 399.06 213.002 399.06 214.559C399.06 215.994 399.14 216.988 399.301 217.543C399.466 218.067 399.775 218.33 400.228 218.33C400.672 218.33 400.977 218.084 401.142 217.593C401.307 217.107 401.39 216.207 401.39 214.896ZM403.395 209.614H407.693V210.77H406.214V219.415H404.919V210.77H403.395V209.614ZM408.429 209.614H411.939V210.732H409.749V213.836H411.692V214.953H409.749V218.298H411.939V219.415H408.429V209.614ZM413.152 209.614H414.472V218.298H416.63V219.415H413.152V209.614ZM423.994 209.773V210.96C423.655 210.795 423.372 210.713 423.143 210.713C422.83 210.713 422.561 210.791 422.337 210.947C422.113 211.1 421.926 211.337 421.778 211.658C421.634 211.98 421.526 212.388 421.455 212.883C421.387 213.374 421.353 213.956 421.353 214.629C421.353 217.05 421.973 218.26 423.213 218.26C423.429 218.26 423.689 218.192 423.994 218.057V219.269C423.676 219.447 423.321 219.536 422.927 219.536C420.942 219.536 419.95 217.915 419.95 214.673C419.95 212.922 420.191 211.618 420.674 210.763C421.16 209.908 421.903 209.481 422.902 209.481C423.27 209.481 423.634 209.578 423.994 209.773ZM429.941 214.756C429.941 216.487 429.749 217.716 429.364 218.444C428.979 219.172 428.333 219.536 427.428 219.536C426.476 219.536 425.805 219.144 425.415 218.361C425.03 217.595 424.838 216.235 424.838 214.28C424.838 212.536 425.028 211.303 425.409 210.579C425.794 209.851 426.446 209.487 427.364 209.487C428.185 209.487 428.795 209.769 429.192 210.332C429.455 210.708 429.645 211.244 429.764 211.938C429.882 212.581 429.941 213.52 429.941 214.756ZM428.558 214.896C428.558 213.199 428.481 212.073 428.329 211.519C428.177 210.96 427.866 210.681 427.396 210.681C426.926 210.681 426.613 210.937 426.456 211.449C426.304 211.965 426.228 213.002 426.228 214.559C426.228 215.994 426.308 216.988 426.469 217.543C426.634 218.067 426.943 218.33 427.396 218.33C427.84 218.33 428.145 218.084 428.31 217.593C428.475 217.107 428.558 216.207 428.558 214.896ZM431.719 209.614H432.849L433.712 213.613C433.818 214.113 433.913 214.614 433.997 215.118C434.086 215.617 434.167 216.142 434.239 216.692C434.247 216.62 434.254 216.565 434.258 216.527C434.262 216.485 434.266 216.455 434.27 216.438L434.455 215.315L434.62 214.248L434.766 213.544L435.534 209.614H436.676L437.578 219.415H436.314L436.092 216.089C436.084 215.92 436.075 215.774 436.067 215.651C436.063 215.528 436.06 215.427 436.06 215.346L436.003 214.032L435.972 212.826C435.972 212.818 435.969 212.801 435.965 212.776C435.965 212.746 435.963 212.708 435.959 212.661L435.927 212.858C435.893 213.091 435.862 213.294 435.832 213.467C435.807 213.641 435.783 213.787 435.762 213.905L435.597 214.8L435.534 215.137L434.708 219.415H433.82L433.045 215.721C432.94 215.234 432.844 214.741 432.76 214.242C432.679 213.738 432.605 213.211 432.538 212.661L432.157 219.415H430.913L431.719 209.614ZM438.669 209.614H440.409C441.247 209.614 441.856 209.826 442.237 210.249C442.618 210.677 442.808 211.354 442.808 212.28C442.808 213.584 442.425 214.426 441.659 214.807C441.274 214.98 440.718 215.067 439.99 215.067V219.415H438.669V209.614ZM439.99 213.937C440.536 213.937 440.912 213.827 441.12 213.607C441.331 213.383 441.437 212.985 441.437 212.414C441.437 211.83 441.335 211.402 441.132 211.131C440.929 210.861 440.61 210.725 440.174 210.725H439.99V213.937ZM443.824 209.614H445.144V218.298H447.302V219.415H443.824V209.614ZM448.127 209.614H451.638V210.732H449.448V213.836H451.39V214.953H449.448V218.298H451.638V219.415H448.127V209.614ZM452.184 209.614H453.466L454.145 211.512C454.412 212.261 454.57 212.809 454.621 213.156C454.668 212.941 454.718 212.731 454.773 212.528C454.833 212.325 454.894 212.122 454.957 211.919L455.046 211.633L455.675 209.614H457.008L455.192 214.439L457.008 219.415H455.675L455.027 217.549C454.896 217.177 454.79 216.842 454.71 216.546C454.629 216.25 454.572 215.987 454.538 215.759C454.505 216.042 454.448 216.313 454.367 216.571L454.145 217.27L454.031 217.638L453.466 219.415H452.069L453.923 214.439L452.184 209.614Z" fill="#8C5A3C"/>
<path d="M326.833 226.339H521.167" stroke="#C08552" stroke-width="0.8"/>
</g>
<defs>
<clipPath id="clip0_1_3">
<rect width="848" height="263" fill="white"/>
</clipPath>
</defs>
</svg>
